<svg xmlns="http://www.w3.org/2000/svg" viewBox="0 0 900 340" font-family="'Segoe UI', system-ui, -apple-system, sans-serif">
  <defs>
    <linearGradient id="bg2" x1="0" y1="0" x2="1" y2="1">
      <stop offset="0%" stop-color="#1a1a2e"/>
      <stop offset="100%" stop-color="#16213e"/>
    </linearGradient>
    <filter id="s2" x="-5%" y="-5%" width="110%" height="115%">
      <feDropShadow dx="0" dy="3" stdDeviation="4" flood-color="#000" flood-opacity="0.25"/>
    </filter>
  </defs>

  <rect width="900" height="340" rx="16" fill="url(#bg2)"/>

  <!-- Title -->
  <text x="450" y="38" text-anchor="middle" fill="#fff" font-size="18" font-weight="700" letter-spacing="2">TECH STACK</text>

  <!-- Server Section -->
  <g filter="url(#s2)">
    <rect x="20" y="58" width="280" height="270" rx="12" fill="rgba(109,179,63,0.06)" stroke="rgba(109,179,63,0.25)" stroke-width="1"/>
    <rect x="20" y="58" width="280" height="3" rx="1.5" fill="#6DB33F"/>
    <text x="160" y="84" text-anchor="middle" fill="#6DB33F" font-size="13" font-weight="700">☕ 后端 · triflow-server</text>
  </g>

  <!-- Server items -->
  <g font-size="11">
    <rect x="38" y="98" width="106" height="28" rx="6" fill="rgba(237,139,0,0.15)" stroke="rgba(237,139,0,0.3)" stroke-width="1"/>
    <text x="91" y="117" text-anchor="middle" fill="#ED8B00" font-weight="600">Java 25</text>

    <rect x="152" y="98" width="134" height="28" rx="6" fill="rgba(109,179,63,0.15)" stroke="rgba(109,179,63,0.3)" stroke-width="1"/>
    <text x="219" y="117" text-anchor="middle" fill="#6DB33F" font-weight="600">Spring Boot 3.5</text>

    <rect x="38" y="134" width="106" height="28" rx="6" fill="rgba(109,179,63,0.15)" stroke="rgba(109,179,63,0.3)" stroke-width="1"/>
    <text x="91" y="153" text-anchor="middle" fill="#6DB33F" font-weight="600">Spring AI</text>

    <rect x="152" y="134" width="134" height="28" rx="6" fill="rgba(59,130,246,0.15)" stroke="rgba(59,130,246,0.3)" stroke-width="1"/>
    <text x="219" y="153" text-anchor="middle" fill="#60a5fa" font-weight="600">MyBatis-Flex</text>

    <rect x="38" y="170" width="106" height="28" rx="6" fill="rgba(168,85,247,0.15)" stroke="rgba(168,85,247,0.3)" stroke-width="1"/>
    <text x="91" y="189" text-anchor="middle" fill="#a855f7" font-weight="600">Sa-Token</text>

    <rect x="152" y="170" width="134" height="28" rx="6" fill="rgba(34,211,238,0.15)" stroke="rgba(34,211,238,0.3)" stroke-width="1"/>
    <text x="219" y="189" text-anchor="middle" fill="#22d3ee" font-weight="600">Knife4j</text>

    <rect x="38" y="206" width="106" height="28" rx="6" fill="rgba(59,130,246,0.15)" stroke="rgba(59,130,246,0.3)" stroke-width="1"/>
    <text x="91" y="225" text-anchor="middle" fill="#3b82f6" font-weight="600">MySQL 8.0</text>

    <rect x="152" y="206" width="134" height="28" rx="6" fill="rgba(239,68,68,0.15)" stroke="rgba(239,68,68,0.3)" stroke-width="1"/>
    <text x="219" y="225" text-anchor="middle" fill="#ef4444" font-weight="600">Redis 7.0</text>

    <rect x="38" y="242" width="106" height="28" rx="6" fill="rgba(236,72,153,0.15)" stroke="rgba(236,72,153,0.3)" stroke-width="1"/>
    <text x="91" y="261" text-anchor="middle" fill="#ec4899" font-weight="600">MinIO</text>

    <rect x="152" y="242" width="134" height="28" rx="6" fill="rgba(245,158,11,0.15)" stroke="rgba(245,158,11,0.3)" stroke-width="1"/>
    <text x="219" y="261" text-anchor="middle" fill="#f59e0b" font-weight="600">Flyway</text>
  </g>

  <!-- Web Section -->
  <g filter="url(#s2)">
    <rect x="310" y="58" width="280" height="270" rx="12" fill="rgba(79,192,141,0.06)" stroke="rgba(79,192,141,0.25)" stroke-width="1"/>
    <rect x="310" y="58" width="280" height="3" rx="1.5" fill="#4FC08D"/>
    <text x="450" y="84" text-anchor="middle" fill="#4FC08D" font-size="13" font-weight="700">🖥 Web · triflow-web</text>
  </g>

  <!-- Web items -->
  <g font-size="11">
    <rect x="328" y="98" width="106" height="28" rx="6" fill="rgba(79,192,141,0.15)" stroke="rgba(79,192,141,0.3)" stroke-width="1"/>
    <text x="381" y="117" text-anchor="middle" fill="#4FC08D" font-weight="600">Vue 3.5</text>

    <rect x="442" y="98" width="134" height="28" rx="6" fill="rgba(100,108,255,0.15)" stroke="rgba(100,108,255,0.3)" stroke-width="1"/>
    <text x="509" y="117" text-anchor="middle" fill="#646cff" font-weight="600">Vite 7.x</text>

    <rect x="328" y="134" width="106" height="28" rx="6" fill="rgba(59,130,246,0.15)" stroke="rgba(59,130,246,0.3)" stroke-width="1"/>
    <text x="381" y="153" text-anchor="middle" fill="#3b82f6" font-weight="600">TypeScript</text>

    <rect x="442" y="134" width="134" height="28" rx="6" fill="rgba(64,158,255,0.15)" stroke="rgba(64,158,255,0.3)" stroke-width="1"/>
    <text x="509" y="153" text-anchor="middle" fill="#409eff" font-weight="600">Element Plus</text>

    <rect x="328" y="170" width="106" height="28" rx="6" fill="rgba(245,158,11,0.15)" stroke="rgba(245,158,11,0.3)" stroke-width="1"/>
    <text x="381" y="189" text-anchor="middle" fill="#f59e0b" font-weight="600">Pinia 3.x</text>

    <rect x="442" y="170" width="134" height="28" rx="6" fill="rgba(56,189,248,0.15)" stroke="rgba(56,189,248,0.3)" stroke-width="1"/>
    <text x="509" y="189" text-anchor="middle" fill="#38bdf8" font-weight="600">TailwindCSS</text>

    <rect x="328" y="206" width="106" height="28" rx="6" fill="rgba(168,85,247,0.15)" stroke="rgba(168,85,247,0.3)" stroke-width="1"/>
    <text x="381" y="225" text-anchor="middle" fill="#a855f7" font-weight="600">VXE Table</text>

    <rect x="442" y="206" width="134" height="28" rx="6" fill="rgba(79,192,141,0.15)" stroke="rgba(79,192,141,0.3)" stroke-width="1"/>
    <text x="509" y="225" text-anchor="middle" fill="#4FC08D" font-weight="600">Vben Admin</text>
  </g>

  <!-- App Section -->
  <g filter="url(#s2)">
    <rect x="600" y="58" width="280" height="270" rx="12" fill="rgba(43,153,57,0.06)" stroke="rgba(43,153,57,0.25)" stroke-width="1"/>
    <rect x="600" y="58" width="280" height="3" rx="1.5" fill="#2B9939"/>
    <text x="740" y="84" text-anchor="middle" fill="#2B9939" font-size="13" font-weight="700">📱 App · triflow-app</text>
  </g>

  <!-- App items -->
  <g font-size="11">
    <rect x="618" y="98" width="106" height="28" rx="6" fill="rgba(43,153,57,0.15)" stroke="rgba(43,153,57,0.3)" stroke-width="1"/>
    <text x="671" y="117" text-anchor="middle" fill="#2B9939" font-weight="600">UniApp</text>

    <rect x="732" y="98" width="134" height="28" rx="6" fill="rgba(79,192,141,0.15)" stroke="rgba(79,192,141,0.3)" stroke-width="1"/>
    <text x="799" y="117" text-anchor="middle" fill="#4FC08D" font-weight="600">Vue 3</text>

    <rect x="618" y="134" width="106" height="28" rx="6" fill="rgba(245,158,11,0.15)" stroke="rgba(245,158,11,0.3)" stroke-width="1"/>
    <text x="671" y="153" text-anchor="middle" fill="#f59e0b" font-weight="600">Wot Design</text>

    <rect x="732" y="134" width="134" height="28" rx="6" fill="rgba(168,85,247,0.15)" stroke="rgba(168,85,247,0.3)" stroke-width="1"/>
    <text x="799" y="153" text-anchor="middle" fill="#a855f7" font-weight="600">UnoCSS</text>

    <rect x="618" y="170" width="106" height="28" rx="6" fill="rgba(34,211,238,0.15)" stroke="rgba(34,211,238,0.3)" stroke-width="1"/>
    <text x="671" y="189" text-anchor="middle" fill="#22d3ee" font-weight="600">Alova 3.x</text>

    <rect x="732" y="170" width="134" height="28" rx="6" fill="rgba(59,130,246,0.15)" stroke="rgba(59,130,246,0.3)" stroke-width="1"/>
    <text x="799" y="189" text-anchor="middle" fill="#60a5fa" font-weight="600">z-paging</text>

    <!-- Platform badges -->
    <text x="740" y="226" text-anchor="middle" fill="rgba(255,255,255,0.4)" font-size="10" letter-spacing="1">支持平台</text>
    <rect x="630" y="238" width="72" height="24" rx="12" fill="rgba(7,193,96,0.15)" stroke="rgba(7,193,96,0.3)" stroke-width="1"/>
    <text x="666" y="254" text-anchor="middle" fill="#07c160" font-size="10" font-weight="600">微信</text>
    <rect x="708" y="238" width="72" height="24" rx="12" fill="rgba(61,220,151,0.15)" stroke="rgba(61,220,151,0.3)" stroke-width="1"/>
    <text x="744" y="254" text-anchor="middle" fill="#3ddc97" font-size="10" font-weight="600">Android</text>
    <rect x="786" y="238" width="72" height="24" rx="12" fill="rgba(147,147,147,0.15)" stroke="rgba(147,147,147,0.3)" stroke-width="1"/>
    <text x="822" y="254" text-anchor="middle" fill="#999" font-size="10" font-weight="600">iOS</text>
    <rect x="708" y="268" width="72" height="24" rx="12" fill="rgba(59,130,246,0.15)" stroke="rgba(59,130,246,0.3)" stroke-width="1"/>
    <text x="744" y="284" text-anchor="middle" fill="#3b82f6" font-size="10" font-weight="600">H5</text>
  </g>
</svg>
